<?xml version="1.0" standalone="no"?>
<!DOCTYPE svg PUBLIC "-//W3C//DTD SVG 1.0//EN" "http://www.w3.org/TR/2001/REC-SVG-20010904/DTD/svg10.dtd">
<svg xmlns="http://www.w3.org/2000/svg" xmlns:xlink="http://www.w3.org/1999/xlink" id="body_1" width="133" height="100">

<g transform="matrix(0.12988281 0 0 0.13020834 0 0)">
	<g transform="matrix(1.5 0 0 1.5 128.00003 -0)">
	</g>
    <path transform="matrix(1.5 0 0 1.5 128.00003 -0)"  d="M512 256C 512 397.387 397.387 512 256 512C 114.613 512 0 397.387 0 256C 0 114.613 114.613 0 256 0C 397.387 0 512 114.613 512 256z" stroke="none" fill="#017296" fill-rule="nonzero" />
	<g transform="matrix(1.5 0 0 1.5 128.00003 -0)">
	</g>
    <path transform="matrix(1.5 0 0 1.5 128.00003 -0)"  d="M271.832 159L271.832 148C 271.832 146.895 272.727 146 273.832 146L273.832 146L394 146C 395.105 146 396 146.895 396 148L396 148L396 159C 396 160.105 395.105 161 394 161L394 161L273.832 161C 272.73 161 271.832 160.105 271.832 159zM424 366L273.832 366C 272.727 366 271.832 366.895 271.832 368L271.832 368L271.832 379C 271.832 380.105 272.727 381 273.832 381L273.832 381L424 381C 425.105 381 426 380.105 426 379L426 379L426 368C 426 366.895 425.105 366 424 366zM273.832 351L394 351C 395.105 351 396 350.105 396 349L396 349L396 338C 396 336.895 395.105 336 394 336L394 336L273.832 336C 272.727 336 271.832 336.895 271.832 338L271.832 338L271.832 349C 271.832 350.105 272.73 351 273.832 351zM424 306L273.832 306C 272.727 306 271.832 306.895 271.832 308L271.832 308L271.832 319C 271.832 320.105 272.727 321 273.832 321L273.832 321L424 321C 425.105 321 426 320.105 426 319L426 319L426 308C 426 306.895 425.105 306 424 306zM424 176L273.832 176C 272.727 176 271.832 176.895 271.832 178L271.832 178L271.832 189C 271.832 190.105 272.727 191 273.832 191L273.832 191L424 191C 425.105 191 426 190.105 426 189L426 189L426 178C 426 176.895 425.105 176 424 176zM424 116L273.832 116C 272.727 116 271.832 116.895 271.832 118L271.832 118L271.832 129C 271.832 130.105 272.727 131 273.832 131L273.832 131L424 131C 425.105 131 426 130.105 426 129L426 129L426 118C 426 116.895 425.105 116 424 116z" stroke="none" fill="#6CAAC9" fill-rule="nonzero" />
	<g transform="matrix(1.5 0 0 1.5 128.00003 -0)">
	</g>
    <path transform="matrix(1.5 0 0 1.5 128.00003 -0)"  d="M151 278.5C 111.023 278.5 78.5 311.023 78.5 351C 78.5 390.977 111.023 423.5 151 423.5C 190.977 423.5 223.5 390.977 223.5 351C 223.5 311.023 190.977 278.5 151 278.5zM151 408.5C 119.293 408.5 93.5 382.707 93.5 351C 93.5 319.293 119.293 293.5 151 293.5C 182.707 293.5 208.5 319.293 208.5 351C 208.5 382.707 182.707 408.5 151 408.5zM151 233.5C 190.977 233.5 223.5 200.977 223.5 161C 223.5 121.023 190.977 88.5 151 88.5C 111.023 88.5 78.5 121.023 78.5 161C 78.5 200.977 111.023 233.5 151 233.5zM151 103.5C 182.707 103.5 208.5 129.293 208.5 161C 208.5 192.707 182.707 218.5 151 218.5C 119.293 218.5 93.5 192.707 93.5 161C 93.5 129.293 119.293 103.5 151 103.5z" stroke="none" fill="#88B9D3" fill-rule="nonzero" />
	<g transform="matrix(1.5 0 0 1.5 128.00003 -0)">
	</g>
    <path transform="matrix(1.5 0 0 1.5 128.00003 -0)"  d="M488.07 80.496L459.785 108.781C 455.883 112.687 449.551 112.687 445.644 108.781L445.644 108.781L403.218 66.355C 399.312 62.449 399.312 56.117 403.218 52.214L403.218 52.214L431.503 23.929C 435.405 20.023 441.737 20.023 445.644 23.929L445.644 23.929L488.07 66.355C 491.976 70.261 491.976 76.593 488.07 80.496z" stroke="none" fill="#024C67" fill-rule="nonzero" />
	<g transform="matrix(1.5 0 0 1.5 128.00003 -0)">
	</g>
    <path transform="matrix(1.5 0 0 1.5 128.00003 -0)"  d="M257.195 94.082L156.039 195.234C 154.316 196.957 151.523 196.961 149.801 195.234L149.801 195.234L105.68 151.125C 104.821 150.266 104.821 148.867 105.68 148.008L105.68 148.008L118.157 135.528C 119.02 134.669 120.415 134.669 121.278 135.528L121.278 135.528L151.356 165.606C 152.215 166.469 153.614 166.469 154.473 165.606L154.473 165.606L241.598 78.485C 242.457 77.626 243.856 77.626 244.715 78.485L244.715 78.485L257.192 90.962C 258.055 91.825 258.055 93.224 257.196 94.083L257.196 94.083L257.195 94.082zM141.641 342.078C 137.887 345.828 135.782 350.914 135.782 356.219L135.782 356.219L135.782 374.219C 135.782 375.324 136.677 376.219 137.782 376.219L137.782 376.219L155.782 376.219C 161.087 376.219 166.173 374.114 169.923 370.36L169.923 370.36L192.349 347.934L164.068 319.653z" stroke="none" fill="#FDED32" fill-rule="nonzero" />
	<g transform="matrix(1.5 0 0 1.5 128.00003 -0)">
	</g>
    <path transform="matrix(1.5 0 0 1.5 128.00003 -0)"  d="M481 87.566L236.219 332.347C 233.426 335.14 229.871 337.042 226 337.816L226 337.816L197.391 343.539C 192.477 344.523 187.399 342.984 183.856 339.441L183.856 339.441L172.555 328.14C 169.016 324.601 167.477 319.519 168.461 314.609L168.461 314.609L174.18 286C 174.953 282.129 176.86 278.57 179.649 275.781L179.649 275.781L424.43 31L481 87.566z" stroke="none" fill="#FC9302" fill-rule="nonzero" />
	<g transform="matrix(1.5 0 0 1.5 128.00003 -0)">
	</g>
    <path transform="matrix(1.5 0 0 1.5 128.00003 -0)"  d="M481 87.566L236.219 332.347C 233.426 335.14 229.871 337.042 226 337.816L226 337.816L197.391 343.539C 192.477 344.523 187.399 342.984 183.856 339.441L183.856 339.441L191.153 302.972C 191.926 299.097 193.829 295.542 196.622 292.749L196.622 292.749L441.403 47.968L481 87.566z" stroke="none" fill="#FDBF43" fill-rule="nonzero" />
	<g transform="matrix(1.5 0 0 1.5 128.00003 -0)">
	</g>
    <path transform="matrix(1.5 0 0 1.5 128.00003 -0)"  d="M236.219 332.348L220.633 347.934C 212.824 355.747 200.16 355.747 192.348 347.934L192.348 347.934L178.207 362.079L149.922 333.794L164.067 319.653C 156.254 311.84 156.254 299.176 164.067 291.368L164.067 291.368L179.653 275.782L236.219 332.348z" stroke="none" fill="#024C67" fill-rule="nonzero" />
</g>
</svg>