<svg
    xmlns="http://www.w3.org/2000/svg"
    viewBox="0 0 59 59"
    id="vector">
    <path
        id="path_2"
        d="M 50.485 0 C 50.211 0 49.95 0.056 49.712 0.156 C 49.95 0.056 50.211 0 50.485 0 L 50.485 0 Z"
        fill="#ed8a19"/>
    <path
        id="path_3"
        d="M 48.5 7 L 52.5 7 L 52.5 11 L 48.5 11 Z"
        fill="#e0e1e2"/>
    <path
        id="path_4"
        d="M 49.375 0.339 C 48.847 0.696 48.5 1.3 48.5 1.985 L 48.5 1.985 C 48.5 1.3 48.847 0.696 49.375 0.339 Z"
        fill="#d75a4a"/>
    <path
        id="path_5"
        d="M 52.5 0 L 50.485 0 C 50.211 0 49.95 0.056 49.712 0.156 C 49.593 0.206 49.48 0.267 49.375 0.339 C 48.847 0.696 48.5 1.3 48.5 1.985 L 48.5 7 L 52.5 7 L 52.5 0 Z"
        fill="#d75a4a"/>
    <path
        id="path_6"
        d="M 52.5 11 L 56.5 11 L 56.5 49 L 52.5 49 Z"
        fill="#db7b1b"/>
    <path
        id="path_7"
        d="M 52.5 7 L 56.5 7 L 56.5 11 L 52.5 11 Z"
        fill="#c4c4c4"/>
    <path
        id="path_8"
        d="M 56.5 7 L 56.5 1.985 C 56.5 1.3 56.153 0.696 55.625 0.339 C 55.52 0.268 55.406 0.206 55.288 0.156 C 55.05 0.056 54.789 0 54.515 0 L 52.5 0 L 52.5 7 L 56.5 7 Z"
        fill="#b74c44"/>
    <path
        id="path_9"
        d="M 21.5 0 L 30.5 0 L 30.5 5 L 21.5 5 Z"
        fill="#303644"/>
    <path
        id="path_10"
        d="M 48.5 49 L 48.5 2 L 34.5 2 L 30.5 2 L 30.5 5 L 21.5 5 L 21.5 2 L 17.5 2 L 2.5 2 L 2.5 58 L 49.5 58 L 49.5 50.75 Z"
        fill="#424a60"/>
    <path
        id="path_11"
        d="M 30.5 2 L 30.5 5 L 21.5 5 L 21.5 2 L 14.5 2 L 14.5 8 L 37.5 8 L 37.5 2 Z"
        fill="#7383bf"/>
    <path
        id="path_12"
        d="M 37.5 7 L 37.5 8 L 14.5 8 L 14.5 7 L 7.5 7 L 7.5 53 L 44.5 53 L 44.5 7 Z"
        fill="#edeada"/>
    <path
        id="path_13"
        d="M 14.5 18 L 23.5 18 C 24.053 18 24.5 17.553 24.5 17 C 24.5 16.447 24.053 16 23.5 16 L 14.5 16 C 13.947 16 13.5 16.447 13.5 17 C 13.5 17.553 13.947 18 14.5 18 Z"
        fill="#cec9ae"/>
    <path
        id="path_14"
        d="M 14.5 25 L 19.5 25 C 20.053 25 20.5 24.553 20.5 24 C 20.5 23.447 20.053 23 19.5 23 L 14.5 23 C 13.947 23 13.5 23.447 13.5 24 C 13.5 24.553 13.947 25 14.5 25 Z"
        fill="#cec9ae"/>
    <path
        id="path_15"
        d="M 34.5 23 L 27.5 23 C 26.947 23 26.5 23.447 26.5 24 C 26.5 24.553 26.947 25 27.5 25 L 34.5 25 C 35.053 25 35.5 24.553 35.5 24 C 35.5 23.447 35.053 23 34.5 23 Z"
        fill="#cec9ae"/>
    <path
        id="path_16"
        d="M 22.79 23.29 C 22.609 23.479 22.5 23.739 22.5 24 C 22.5 24.26 22.609 24.52 22.79 24.71 C 22.979 24.899 23.229 25 23.5 25 C 23.76 25 24.02 24.89 24.21 24.71 C 24.39 24.52 24.5 24.26 24.5 24 C 24.5 23.739 24.39 23.479 24.21 23.29 C 23.83 22.92 23.17 22.92 22.79 23.29 Z"
        fill="#cec9ae"/>
    <path
        id="path_17"
        d="M 39.21 23.29 C 38.83 22.92 38.17 22.92 37.79 23.29 C 37.609 23.479 37.5 23.739 37.5 24 C 37.5 24.26 37.609 24.52 37.79 24.71 C 37.979 24.899 38.229 25 38.5 25 C 38.77 25 39.02 24.89 39.21 24.71 C 39.39 24.52 39.5 24.26 39.5 24 C 39.5 23.739 39.39 23.479 39.21 23.29 Z"
        fill="#cec9ae"/>
    <path
        id="path_18"
        d="M 25.5 30 L 18.5 30 C 17.947 30 17.5 30.447 17.5 31 C 17.5 31.553 17.947 32 18.5 32 L 25.5 32 C 26.053 32 26.5 31.553 26.5 31 C 26.5 30.447 26.053 30 25.5 30 Z"
        fill="#cec9ae"/>
    <path
        id="path_19"
        d="M 13.79 30.29 C 13.6 30.479 13.5 30.729 13.5 31 C 13.5 31.26 13.609 31.52 13.79 31.71 C 13.979 31.89 14.24 32 14.5 32 C 14.76 32 15.02 31.89 15.21 31.71 C 15.399 31.52 15.5 31.26 15.5 31 C 15.5 30.739 15.399 30.479 15.21 30.29 C 14.83 29.92 14.17 29.92 13.79 30.29 Z"
        fill="#cec9ae"/>
    <path
        id="path_20"
        d="M 20.025 36.137 C 17.834 37.277 17.097 39.457 16.829 41.719 C 16.415 41.372 16.002 41.026 15.588 40.679 C 14.607 39.857 13.184 41.264 14.174 42.094 C 15.109 42.877 16.045 43.661 16.98 44.445 C 17.642 45 18.656 44.656 18.687 43.738 C 18.76 41.571 18.864 38.995 21.035 37.865 C 22.179 37.268 21.167 35.542 20.025 36.137 Z"
        fill="#7383bf"/>
    <path
        id="path_21"
        d="M 29.364 41.22 C 28.844 40.29 27.722 39.829 26.676 40.125 C 25.311 40.511 23.695 42.167 22.74 40.231 C 22.169 39.074 20.445 40.088 21.013 41.24 C 21.527 42.282 22.513 43.038 23.682 43.172 C 24.289 43.241 24.799 43.159 25.37 42.946 C 25.776 42.794 27.293 41.614 27.637 42.229 C 28.266 43.355 29.993 42.347 29.364 41.22 Z"
        fill="#7383bf"/>
    <path
        id="path_22"
        d="M 56.5 49 L 48.5 49 L 52.5 56 Z"
        fill="#ebd6bd"/>
    <path
        id="path_23"
        d="M 51.5 58 C 51.5 58.553 51.947 59 52.5 59 C 53.053 59 53.5 58.553 53.5 58 L 53.5 54 L 51.5 54 L 51.5 58 Z"
        fill="#4c4c4c"/>
    <path
        id="path_24"
        d="M 48.5 11 L 52.5 11 L 52.5 49 L 48.5 49 Z"
        fill="#ed8a19"/>
</svg>
