<svg
    xmlns="http://www.w3.org/2000/svg"
    viewBox="0 0 56 56"
    id="vector">
    <path
        id="path_2"
        d="M 51.503 56 L 17.5 56 L 17.5 0.003 L 51.503 0.003 C 53.158 0.003 54.5 1.345 54.5 3 L 54.5 53.003 C 54.5 54.658 53.158 56 51.503 56 Z"
        fill="#6b4842"/>
    <path
        id="path_3"
        d="M 43.5 0.003 L 48.5 0.003 L 48.5 56 L 43.5 56 Z"
        fill="#bfa380"/>
    <path
        id="path_4"
        d="M 6.5 0 L 17.5 0 L 17.5 56 L 6.5 56 Z"
        fill="#be6e41"/>
    <path
        id="path_5"
        d="M 10.5 45 M 8.5 45 C 8.5 44.47 8.711 43.961 9.086 43.586 C 9.461 43.211 9.97 43 10.5 43 C 11.03 43 11.539 43.211 11.914 43.586 C 12.289 43.961 12.5 44.47 12.5 45 C 12.5 45.53 12.289 46.039 11.914 46.414 C 11.539 46.789 11.03 47 10.5 47 C 9.97 47 9.461 46.789 9.086 46.414 C 8.711 46.039 8.5 45.53 8.5 45"
        fill="#6b4842"/>
    <path
        id="path_6"
        d="M 10.5 39 M 8.5 39 C 8.5 38.47 8.711 37.961 9.086 37.586 C 9.461 37.211 9.97 37 10.5 37 C 11.03 37 11.539 37.211 11.914 37.586 C 12.289 37.961 12.5 38.47 12.5 39 C 12.5 39.53 12.289 40.039 11.914 40.414 C 11.539 40.789 11.03 41 10.5 41 C 9.97 41 9.461 40.789 9.086 40.414 C 8.711 40.039 8.5 39.53 8.5 39"
        fill="#6b4842"/>
    <path
        id="path_7"
        d="M 10.5 33 M 8.5 33 C 8.5 32.47 8.711 31.961 9.086 31.586 C 9.461 31.211 9.97 31 10.5 31 C 11.03 31 11.539 31.211 11.914 31.586 C 12.289 31.961 12.5 32.47 12.5 33 C 12.5 33.53 12.289 34.039 11.914 34.414 C 11.539 34.789 11.03 35 10.5 35 C 9.97 35 9.461 34.789 9.086 34.414 C 8.711 34.039 8.5 33.53 8.5 33"
        fill="#6b4842"/>
    <path
        id="path_8"
        d="M 10.5 27 M 8.5 27 C 8.5 26.47 8.711 25.961 9.086 25.586 C 9.461 25.211 9.97 25 10.5 25 C 11.03 25 11.539 25.211 11.914 25.586 C 12.289 25.961 12.5 26.47 12.5 27 C 12.5 27.53 12.289 28.039 11.914 28.414 C 11.539 28.789 11.03 29 10.5 29 C 9.97 29 9.461 28.789 9.086 28.414 C 8.711 28.039 8.5 27.53 8.5 27"
        fill="#6b4842"/>
    <path
        id="path_9"
        d="M 1.5 27 C 1.5 28.13 1.891 29.162 2.525 30 C 2.93 29.466 3.437 29.021 4.02 28.685 C 3.692 28.204 3.5 27.624 3.5 27 C 3.5 25.346 4.846 24 6.5 24 C 8.154 24 9.5 25.346 9.5 27 C 9.5 27.553 9.947 28 10.5 28 C 11.053 28 11.5 27.553 11.5 27 C 11.5 24.243 9.257 22 6.5 22 C 3.743 22 1.5 24.243 1.5 27 Z"
        fill="#d8a852"/>
    <path
        id="path_10"
        d="M 4.02 31.315 C 4.754 31.739 5.593 32 6.5 32 L 6.5 30 C 5.47 30 4.561 30.522 4.02 31.315 Z"
        fill="#a37f46"/>
    <path
        id="path_11"
        d="M 4.02 37.315 C 4.754 37.739 5.593 38 6.5 38 L 6.5 36 C 5.47 36 4.561 36.522 4.02 37.315 Z"
        fill="#a37f46"/>
    <path
        id="path_12"
        d="M 4.02 28.685 C 3.437 29.021 2.93 29.466 2.525 30 C 1.891 30.838 1.5 31.87 1.5 33 C 1.5 34.13 1.891 35.162 2.525 36 C 2.93 35.466 3.437 35.021 4.02 34.685 C 3.692 34.204 3.5 33.624 3.5 33 C 3.5 32.376 3.692 31.796 4.02 31.315 C 4.561 30.522 5.47 30 6.5 30 C 8.154 30 9.5 31.346 9.5 33 C 9.5 33.553 9.947 34 10.5 34 C 11.053 34 11.5 33.553 11.5 33 C 11.5 30.243 9.257 28 6.5 28 C 5.593 28 4.754 28.261 4.02 28.685 Z"
        fill="#d8a852"/>
    <path
        id="path_13"
        d="M 4.02 43.315 C 4.754 43.739 5.593 44 6.5 44 L 6.5 42 C 5.47 42 4.561 42.522 4.02 43.315 Z"
        fill="#a37f46"/>
    <path
        id="path_14"
        d="M 4.02 34.685 C 3.437 35.021 2.93 35.466 2.525 36 C 1.891 36.838 1.5 37.87 1.5 39 C 1.5 40.13 1.891 41.162 2.525 42 C 2.93 41.466 3.437 41.021 4.02 40.685 C 3.692 40.204 3.5 39.624 3.5 39 C 3.5 38.376 3.692 37.796 4.02 37.315 C 4.561 36.522 5.47 36 6.5 36 C 8.154 36 9.5 37.346 9.5 39 C 9.5 39.553 9.947 40 10.5 40 C 11.053 40 11.5 39.553 11.5 39 C 11.5 36.243 9.257 34 6.5 34 C 5.593 34 4.754 34.261 4.02 34.685 Z"
        fill="#d8a852"/>
    <path
        id="path_15"
        d="M 10.5 21 M 8.5 21 C 8.5 20.47 8.711 19.961 9.086 19.586 C 9.461 19.211 9.97 19 10.5 19 C 11.03 19 11.539 19.211 11.914 19.586 C 12.289 19.961 12.5 20.47 12.5 21 C 12.5 21.53 12.289 22.039 11.914 22.414 C 11.539 22.789 11.03 23 10.5 23 C 9.97 23 9.461 22.789 9.086 22.414 C 8.711 22.039 8.5 21.53 8.5 21"
        fill="#6b4842"/>
    <path
        id="path_16"
        d="M 10.5 15 M 8.5 15 C 8.5 14.47 8.711 13.961 9.086 13.586 C 9.461 13.211 9.97 13 10.5 13 C 11.03 13 11.539 13.211 11.914 13.586 C 12.289 13.961 12.5 14.47 12.5 15 C 12.5 15.53 12.289 16.039 11.914 16.414 C 11.539 16.789 11.03 17 10.5 17 C 9.97 17 9.461 16.789 9.086 16.414 C 8.711 16.039 8.5 15.53 8.5 15"
        fill="#6b4842"/>
    <path
        id="path_17"
        d="M 10.5 9 M 8.5 9 C 8.5 8.47 8.711 7.961 9.086 7.586 C 9.461 7.211 9.97 7 10.5 7 C 11.03 7 11.539 7.211 11.914 7.586 C 12.289 7.961 12.5 8.47 12.5 9 C 12.5 9.53 12.289 10.039 11.914 10.414 C 11.539 10.789 11.03 11 10.5 11 C 9.97 11 9.461 10.789 9.086 10.414 C 8.711 10.039 8.5 9.53 8.5 9"
        fill="#6b4842"/>
    <path
        id="path_18"
        d="M 1.5 9 C 1.5 10.13 1.891 11.162 2.525 12 C 2.93 11.466 3.437 11.021 4.02 10.685 C 3.692 10.204 3.5 9.624 3.5 9 C 3.5 7.346 4.846 6 6.5 6 C 8.154 6 9.5 7.346 9.5 9 C 9.5 9.553 9.947 10 10.5 10 C 11.053 10 11.5 9.553 11.5 9 C 11.5 6.243 9.257 4 6.5 4 C 3.743 4 1.5 6.243 1.5 9 Z"
        fill="#d8a852"/>
    <path
        id="path_19"
        d="M 4.02 13.315 C 4.754 13.739 5.593 14 6.5 14 L 6.5 12 C 5.47 12 4.561 12.522 4.02 13.315 Z"
        fill="#a37f46"/>
    <path
        id="path_20"
        d="M 4.02 19.315 C 4.754 19.739 5.593 20 6.5 20 L 6.5 18 C 5.47 18 4.561 18.522 4.02 19.315 Z"
        fill="#a37f46"/>
    <path
        id="path_21"
        d="M 4.02 10.685 C 3.437 11.021 2.93 11.466 2.525 12 C 1.891 12.838 1.5 13.87 1.5 15 C 1.5 16.13 1.891 17.162 2.525 18 C 2.93 17.466 3.437 17.021 4.02 16.685 C 3.692 16.204 3.5 15.624 3.5 15 C 3.5 14.376 3.692 13.796 4.02 13.315 C 4.561 12.522 5.47 12 6.5 12 C 8.154 12 9.5 13.346 9.5 15 C 9.5 15.553 9.947 16 10.5 16 C 11.053 16 11.5 15.553 11.5 15 C 11.5 12.243 9.257 10 6.5 10 C 5.593 10 4.754 10.261 4.02 10.685 Z"
        fill="#d8a852"/>
    <path
        id="path_22"
        d="M 4.02 25.315 C 4.754 25.739 5.593 26 6.5 26 L 6.5 24 C 5.47 24 4.561 24.522 4.02 25.315 Z"
        fill="#a37f46"/>
    <path
        id="path_23"
        d="M 4.02 16.685 C 3.437 17.021 2.93 17.466 2.525 18 C 1.891 18.838 1.5 19.87 1.5 21 C 1.5 22.13 1.891 23.162 2.525 24 C 2.93 23.466 3.437 23.021 4.02 22.685 C 3.692 22.204 3.5 21.624 3.5 21 C 3.5 20.376 3.692 19.796 4.02 19.315 C 4.561 18.522 5.47 18 6.5 18 C 8.154 18 9.5 19.346 9.5 21 C 9.5 21.553 9.947 22 10.5 22 C 11.053 22 11.5 21.553 11.5 21 C 11.5 18.243 9.257 16 6.5 16 C 5.593 16 4.754 16.261 4.02 16.685 Z"
        fill="#d8a852"/>
    <path
        id="path_24"
        d="M 4.02 40.685 C 3.437 41.021 2.93 41.466 2.525 42 C 1.891 42.838 1.5 43.87 1.5 45 C 1.5 47.757 3.743 50 6.5 50 L 6.5 48 C 4.846 48 3.5 46.654 3.5 45 C 3.5 44.376 3.692 43.796 4.02 43.315 C 4.561 42.522 5.47 42 6.5 42 C 8.154 42 9.5 43.346 9.5 45 C 9.5 45.553 9.947 46 10.5 46 C 11.053 46 11.5 45.553 11.5 45 C 11.5 42.243 9.257 40 6.5 40 C 5.593 40 4.754 40.261 4.02 40.685 Z"
        fill="#d8a852"/>
</svg>
