<svg
    xmlns="http://www.w3.org/2000/svg"
    viewBox="0 0 52 52"
    id="vector">
    <path
        id="path"
        d="M 40.824 52 L 11.176 52 C 5.003 52 0 46.997 0 40.824 L 0 11.176 C 0 5.003 5.003 0 11.176 0 L 40.825 0 C 46.997 0 52 5.003 52 11.176 L 52 40.825 C 52 46.997 46.997 52 40.824 52 Z"
        fill="#ea6248"/>
    <path
        id="path_1"
        d="M 42.66 8.106 C 42.443 7.917 42.154 7.827 41.871 7.866 L 19.871 10.722 C 19.373 10.787 19 11.211 19 11.714 L 19 16 L 19 19 L 19 35.737 C 17.629 34.409 15.674 33.572 13.5 33.572 C 9.364 33.572 6 36.585 6 40.287 C 6 43.989 9.364 47 13.5 47 C 17.636 47 21 43.988 21 40.286 L 21 19.878 L 41 17.28 L 41 29.289 C 39.643 27.972 37.715 27.143 35.571 27.143 C 31.475 27.143 28.143 30.156 28.143 33.858 C 28.143 37.56 31.476 40.572 35.571 40.572 C 39.667 40.572 43 37.56 43 33.858 L 43 16.143 L 43 13.143 L 43 8.857 C 43 8.569 42.876 8.296 42.66 8.106 Z"
        fill="#efce4a"/>
</svg>
