<svg
    xmlns="http://www.w3.org/2000/svg"
    viewBox="0 0 512 512"
    id="vector">
    <path
        id="path"
        d="M 512 256 C 512 397.387 397.387 512 256 512 C 114.613 512 0 397.387 0 256 C 0 114.613 114.613 0 256 0 C 397.387 0 512 114.613 512 256 Z M 512 256"
        fill="#017296"/>
    <path
        id="path_1"
        d="M 271.832 159 L 271.832 148 C 271.832 146.895 272.727 146 273.832 146 L 394 146 C 395.105 146 396 146.895 396 148 L 396 159 C 396 160.105 395.105 161 394 161 L 273.832 161 C 272.73 161 271.832 160.105 271.832 159 Z M 424 366 L 273.832 366 C 272.727 366 271.832 366.895 271.832 368 L 271.832 379 C 271.832 380.105 272.727 381 273.832 381 L 424 381 C 425.105 381 426 380.105 426 379 L 426 368 C 426 366.895 425.105 366 424 366 Z M 273.832 351 L 394 351 C 395.105 351 396 350.105 396 349 L 396 338 C 396 336.895 395.105 336 394 336 L 273.832 336 C 272.727 336 271.832 336.895 271.832 338 L 271.832 349 C 271.832 350.105 272.73 351 273.832 351 Z M 424 306 L 273.832 306 C 272.727 306 271.832 306.895 271.832 308 L 271.832 319 C 271.832 320.105 272.727 321 273.832 321 L 424 321 C 425.105 321 426 320.105 426 319 L 426 308 C 426 306.895 425.105 306 424 306 Z M 424 176 L 273.832 176 C 272.727 176 271.832 176.895 271.832 178 L 271.832 189 C 271.832 190.105 272.727 191 273.832 191 L 424 191 C 425.105 191 426 190.105 426 189 L 426 178 C 426 176.895 425.105 176 424 176 Z M 424 116 L 273.832 116 C 272.727 116 271.832 116.895 271.832 118 L 271.832 129 C 271.832 130.105 272.727 131 273.832 131 L 424 131 C 425.105 131 426 130.105 426 129 L 426 118 C 426 116.895 425.105 116 424 116 Z M 424 116"
        fill="#6caac9"/>
    <path
        id="path_2"
        d="M 151 278.5 C 111.023 278.5 78.5 311.023 78.5 351 C 78.5 390.977 111.023 423.5 151 423.5 C 190.977 423.5 223.5 390.977 223.5 351 C 223.5 311.023 190.977 278.5 151 278.5 Z M 151 408.5 C 119.293 408.5 93.5 382.707 93.5 351 C 93.5 319.293 119.293 293.5 151 293.5 C 182.707 293.5 208.5 319.293 208.5 351 C 208.5 382.707 182.707 408.5 151 408.5 Z M 151 233.5 C 190.977 233.5 223.5 200.977 223.5 161 C 223.5 121.023 190.977 88.5 151 88.5 C 111.023 88.5 78.5 121.023 78.5 161 C 78.5 200.977 111.023 233.5 151 233.5 Z M 151 103.5 C 182.707 103.5 208.5 129.293 208.5 161 C 208.5 192.707 182.707 218.5 151 218.5 C 119.293 218.5 93.5 192.707 93.5 161 C 93.5 129.293 119.293 103.5 151 103.5 Z M 151 103.5"
        fill="#88b9d3"/>
    <path
        id="path_3"
        d="M 488.07 80.496 L 459.785 108.781 C 455.883 112.687 449.551 112.687 445.644 108.781 L 403.218 66.355 C 399.312 62.449 399.312 56.117 403.218 52.214 L 431.503 23.929 C 435.405 20.023 441.737 20.023 445.644 23.929 L 488.07 66.355 C 491.976 70.261 491.976 76.593 488.07 80.496 Z M 488.07 80.496"
        fill="#024c67"/>
    <path
        id="path_4"
        d="M 257.195 94.082 L 156.039 195.234 C 154.316 196.957 151.523 196.961 149.801 195.234 L 105.68 151.125 C 104.821 150.266 104.821 148.867 105.68 148.008 L 118.157 135.528 C 119.02 134.669 120.415 134.669 121.278 135.528 L 151.356 165.606 C 152.215 166.469 153.614 166.469 154.473 165.606 L 241.598 78.485 C 242.457 77.626 243.856 77.626 244.715 78.485 L 257.192 90.962 C 258.055 91.825 258.055 93.224 257.196 94.083 Z M 141.641 342.078 C 137.887 345.828 135.782 350.914 135.782 356.219 L 135.782 374.219 C 135.782 375.324 136.677 376.219 137.782 376.219 L 155.782 376.219 C 161.087 376.219 166.173 374.114 169.923 370.36 L 192.349 347.934 L 164.068 319.653 Z M 141.641 342.078"
        fill="#fded32"/>
    <path
        id="path_5"
        d="M 481 87.566 L 236.219 332.347 C 233.426 335.14 229.871 337.042 226 337.816 L 197.391 343.539 C 192.477 344.523 187.399 342.984 183.856 339.441 L 172.555 328.14 C 169.016 324.601 167.477 319.519 168.461 314.609 L 174.18 286 C 174.953 282.129 176.86 278.57 179.649 275.781 L 424.43 31 Z M 481 87.566"
        fill="#fc9302"/>
    <path
        id="path_6"
        d="M 481 87.566 L 236.219 332.347 C 233.426 335.14 229.871 337.042 226 337.816 L 197.391 343.539 C 192.477 344.523 187.399 342.984 183.856 339.441 L 191.153 302.972 C 191.926 299.097 193.829 295.542 196.622 292.749 L 441.403 47.968 Z M 481 87.566"
        fill="#fdbf43"/>
    <path
        id="path_7"
        d="M 236.219 332.348 L 220.633 347.934 C 212.824 355.747 200.16 355.747 192.348 347.934 L 178.207 362.079 L 149.922 333.794 L 164.067 319.653 C 156.254 311.84 156.254 299.176 164.067 291.368 L 179.653 275.782 Z M 236.219 332.348"
        fill="#024c67"/>
</svg>
