<svg
    xmlns="http://www.w3.org/2000/svg"
    viewBox="0 0 53 53"
    id="vector">
    <path
        id="path"
        d="M 26.5 9 C 17.663 9 10.5 16.164 10.5 25 C 10.5 32.089 15.115 38.091 21.5 40.192 L 21.5 50 L 23.5 50 L 23.5 53 L 29.5 53 L 29.5 50 L 31.5 50 L 31.5 40.192 C 37.885 38.091 42.5 32.089 42.5 25 C 42.5 16.164 35.337 9 26.5 9 Z"
        fill="#efce4a"/>
    <path
        id="path_1"
        d="M 26.5 0 C 25.947 0 25.5 0.447 25.5 1 L 25.5 5 C 25.5 5.553 25.947 6 26.5 6 C 27.053 6 27.5 5.553 27.5 5 L 27.5 1 C 27.5 0.447 27.053 0 26.5 0 Z"
        fill="#efce4a"/>
    <path
        id="path_25"
        d="M 50.5 24 L 46.5 24 C 45.947 24 45.5 24.447 45.5 25 C 45.5 25.553 45.947 26 46.5 26 L 50.5 26 C 51.053 26 51.5 25.553 51.5 25 C 51.5 24.447 51.053 24 50.5 24 Z"
        fill="#efce4a"/>
    <path
        id="path_26"
        d="M 6.5 24 L 2.5 24 C 1.947 24 1.5 24.447 1.5 25 C 1.5 25.553 1.947 26 2.5 26 L 6.5 26 C 7.053 26 7.5 25.553 7.5 25 C 7.5 24.447 7.053 24 6.5 24 Z"
        fill="#efce4a"/>
    <path
        id="path_27"
        d="M 42.764 7.322 L 39.936 10.15 C 39.545 10.541 39.545 11.173 39.936 11.564 C 40.131 11.759 40.387 11.857 40.643 11.857 C 40.899 11.857 41.155 11.759 41.35 11.564 L 44.178 8.736 C 44.569 8.345 44.569 7.713 44.178 7.322 C 43.787 6.931 43.154 6.932 42.764 7.322 Z"
        fill="#efce4a"/>
    <path
        id="path_28"
        d="M 11.65 38.436 L 8.822 41.264 C 8.431 41.655 8.431 42.287 8.822 42.678 C 9.017 42.873 9.273 42.971 9.529 42.971 C 9.785 42.971 10.041 42.873 10.236 42.678 L 13.064 39.85 C 13.455 39.459 13.455 38.827 13.064 38.436 C 12.673 38.045 12.041 38.045 11.65 38.436 Z"
        fill="#efce4a"/>
    <path
        id="path_29"
        d="M 41.35 38.436 C 40.959 38.045 40.327 38.045 39.936 38.436 C 39.545 38.827 39.545 39.459 39.936 39.85 L 42.764 42.678 C 42.959 42.873 43.215 42.971 43.471 42.971 C 43.727 42.971 43.983 42.873 44.178 42.678 C 44.569 42.287 44.569 41.655 44.178 41.264 L 41.35 38.436 Z"
        fill="#efce4a"/>
    <path
        id="path_30"
        d="M 10.236 7.322 C 9.845 6.931 9.213 6.931 8.822 7.322 C 8.431 7.713 8.431 8.345 8.822 8.736 L 11.65 11.564 C 11.845 11.759 12.101 11.857 12.357 11.857 C 12.613 11.857 12.869 11.759 13.064 11.564 C 13.455 11.173 13.455 10.541 13.064 10.15 L 10.236 7.322 Z"
        fill="#efce4a"/>
    <path
        id="path_31"
        d="M 15.5 26 C 14.947 26 14.5 25.553 14.5 25 C 14.5 18.383 19.883 13 26.5 13 C 27.053 13 27.5 13.447 27.5 14 C 27.5 14.553 27.053 15 26.5 15 C 20.986 15 16.5 19.486 16.5 25 C 16.5 25.553 16.053 26 15.5 26 Z"
        fill="#f7e6a1"/>
    <path
        id="path_32"
        d="M 21.5 43 L 21.5 50 L 23.5 50 L 23.5 53 L 29.5 53 L 29.5 50 L 31.5 50 L 31.5 43 Z"
        fill="#556080"/>
</svg>
